HIERARCHY
ROOT root
{
	OFFSET	0	260	24
	CHANNELS 6  Xposition Yposition Zposition Xrotation Yrotation Zrotation
	JOINT spine_3
	{
		OFFSET	0	81.6	10.2
		CHANNELS 3  Xrotation Yrotation Zrotation
		JOINT spine_4
		{
			OFFSET	0	110.4	14.6
			CHANNELS 3  Xrotation Yrotation Zrotation
			JOINT neck_1
			{
				OFFSET	0	71.8	-50.3
				CHANNELS 3  Xrotation Yrotation Zrotation
				JOINT neck_2
				{
					OFFSET	0	86.2	-25.8
					CHANNELS 3  Xrotation Yrotation Zrotation
					JOINT head_ee
					{
						OFFSET	0	179.8	-8.7
						CHANNELS 3  Xrotation Yrotation Zrotation
						End Site
						{
							OFFSET	1	0	0
						}
					}
				}
			}
			JOINT left_clavicle
			{
				OFFSET	-43.2	22.4	-70.8
				CHANNELS 3  Xrotation Yrotation Zrotation
				JOINT left_shoulder
				{
					OFFSET	-93.9	-5.79999	48.7
					CHANNELS 3  Xrotation Yrotation Zrotation
					JOINT left_elbow
					{
						OFFSET	-291.4	-30.8	15.2
						CHANNELS 3  Xrotation Yrotation Zrotation
						JOINT left_lowarm_twist
						{
							OFFSET	-110.7	-3.89999	13.6
							CHANNELS 3  Xrotation Yrotation Zrotation
							JOINT left_hand
							{
								OFFSET	-110.7	-3.89999	13.6
								CHANNELS 3  Xrotation Yrotation Zrotation
								JOINT left_ee
								{
									OFFSET	-80.8	-5.10001	12.1
									CHANNELS 3  Xrotation Yrotation Zrotation
									End Site
									{
										OFFSET	1	0	0
									}
								}
							}
						}
					}
				}
			}
			JOINT right_clavicle
			{
				OFFSET	43.2	22.4	-70.8
				CHANNELS 3  Xrotation Yrotation Zrotation
				JOINT right_shoulder
				{
					OFFSET	93.9	-5.79999	48.7
					CHANNELS 3  Xrotation Yrotation Zrotation
					JOINT right_elbow
					{
						OFFSET	291.4	-30.8	15.2
						CHANNELS 3  Xrotation Yrotation Zrotation
						JOINT right_lowarm_twist
						{
							OFFSET	110.7	-3.89999	13.6
							CHANNELS 3  Xrotation Yrotation Zrotation
							JOINT right_hand
							{
								OFFSET	110.7	-3.89999	13.6
								CHANNELS 3  Xrotation Yrotation Zrotation
								JOINT right_ee
								{
									OFFSET	80.8	-5.10001	12.1
									CHANNELS 3  Xrotation Yrotation Zrotation
									End Site
									{
										OFFSET	1	0	0
									}
								}
							}
						}
					}
				}
			}
		}
	}
	JOINT spine_2
	{
		OFFSET	0	-124.9	-9.1
		CHANNELS 3  Xrotation Yrotation Zrotation
		JOINT spine_1
		{
			OFFSET	0	-112	10
			CHANNELS 3  Xrotation Yrotation Zrotation
			JOINT left_hip
			{
				OFFSET	-82.8	-137.5	0.300001
				CHANNELS 3  Xrotation Yrotation Zrotation
				JOINT left_knee
				{
					OFFSET	-28.2	-396.7	2.2
					CHANNELS 3  Xrotation Yrotation Zrotation
					JOINT left_ankle
					{
						OFFSET	-11.7	-411.3	35.4
						CHANNELS 3  Xrotation Yrotation Zrotation
						JOINT left_toes
						{
							OFFSET	0	-60	-88.6
							CHANNELS 3  Xrotation Yrotation Zrotation
							JOINT left_foot_ee
							{
								OFFSET	-22.5	-16.5	-42.2
								CHANNELS 3  Xrotation Yrotation Zrotation
								End Site
								{
									OFFSET	1	0	0
								}
							}
						}
					}
				}
			}
			JOINT right_hip
			{
				OFFSET	82.8	-137.5	0.300001
				CHANNELS 3  Xrotation Yrotation Zrotation
				JOINT right_knee
				{
					OFFSET	28.2	-396.7	2.2
					CHANNELS 3  Xrotation Yrotation Zrotation
					JOINT right_ankle
					{
						OFFSET	11.7	-411.3	35.4
						CHANNELS 3  Xrotation Yrotation Zrotation
						JOINT right_toes
						{
							OFFSET	0	-60	-88.6
							CHANNELS 3  Xrotation Yrotation Zrotation
							JOINT right_foot_ee
							{
								OFFSET	22.5	-16.5	-42.2
								CHANNELS 3  Xrotation Yrotation Zrotation
								End Site
								{
									OFFSET	1	0	0
								}
							}
						}
					}
				}
			}
		}
	}
}
MOTION
Frames: 9
Frame Time: 0.02
2493.26 935.49 -1216.87 -3.84193 55.9128 4.76045 3.73575 0.123542 -1.55537 3.7324 -0.12362 -1.55537 -10.6557 21.222 11.231 -10.7547 32.7894 16.4299 -0.0 0.0 -0.0 -0.546466 15.7237 0.983059 -27.2038 -35.0794 71.8015 0.673792 -18.4579 0.109481 6.2182 0.177218 -0.774133 1.7523 -0.600936 11.548 -0.0 0.0 -0.0 10.0959 -4.81344 -19.5382 -15.9101 32.862 -51.9118 1.69656 40.0411 -0.618224 -57.6041 4.98638 -5.02036 -5.53639 -19.2091 26.4588 0.0 0.0 0.0 -3.73505 0.00331189 1.56027 -3.73639 0.102577 1.55689 26.6091 -28.4903 -13.2673 -0.781576 0.0313921 0.115833 11.1456 25.178 -1.6531 -23.3844 0.0 0.0 -0.0 0.0 -0.0 1.44926 21.2682 -4.79353 -21.2919 -0.278047 -3.23681 31.8857 -7.06442 4.08707 17.1335 -0.0 -0.0 0.0 0.0 0.0 
2468.14 933.744 -1217.19 -3.76016 55.3736 4.96449 3.52527 0.141664 -1.65804 3.52146 -0.121933 -1.6596 -10.7989 21.1568 11.512 -10.8863 32.5251 16.7125 -0.0 0.0 -0.0 -0.325176 15.5787 1.31551 -26.4545 -35.4043 71.4753 0.682705 -18.6852 0.11232 6.31679 0.179347 -0.786546 1.73537 -0.573949 11.4433 -0.0 0.0 -0.0 10.2504 -4.76729 -19.849 -17.0789 31.8829 -51.2256 1.67167 39.6249 -0.602286 -57.3718 4.95783 -5.01187 -5.47626 -18.4762 26.6051 0.0 0.0 0.0 -3.52447 0.00583253 1.66406 -3.526 0.111695 1.66032 26.1913 -29.33 -13.2219 -1.9564 0.0755954 0.290709 13.579 24.7471 -1.99303 -22.0699 0.0 0.0 -0.0 0.0 -0.0 1.19267 21.8619 -4.11444 -23.2626 -0.242648 -3.53712 31.3625 -7.21119 4.03288 17.4689 -0.0 -0.0 0.0 0.0 0.0 
2440.31 935.759 -1215.72 -3.41101 53.8337 4.68875 3.38939 0.168879 -1.75834 3.38509 -0.110894 -1.76295 -10.6659 21.2017 11.4296 -10.7468 32.622 16.6093 -0.0 0.0 -0.0 -0.0705223 15.5202 1.71267 -25.4272 -35.708 71.9476 0.688017 -18.8204 0.114028 6.39485 0.181019 -0.796378 1.72937 -0.529865 11.4201 -0.0 0.0 -0.0 10.0594 -5.12488 -19.4408 -17.8757 31.0331 -51.1469 1.59251 38.2664 -0.552521 -56.9662 4.90805 -4.99676 -5.43616 -18.1277 26.592 0.0 0.0 0.0 -3.38848 -0.00399611 1.76643 -3.39021 0.108397 1.7631 26.038 -29.1 -12.235 -3.93557 0.141915 0.587199 14.4697 24.6582 -2.1161 -21.1828 0.0 0.0 -0.0 0.0 -0.0 1.37126 22.3182 -4.35498 -24.6157 -0.212367 -3.74256 31.2287 -7.39337 4.01917 17.8861 -0.0 -0.0 0.0 0.0 0.0 
2416.3 940.882 -1212.5 -3.09862 53.3876 5.014 3.33156 0.15106 -1.79498 3.32709 -0.134272 -1.79631 -10.0361 21.2004 10.9637 -10.0791 32.7242 15.9879 -0.0 0.0 -0.0 0.331625 14.8881 2.28396 -25.0086 -36.1546 71.2905 0.681375 -18.6513 0.111894 6.4446 0.182077 -0.802645 1.71963 -0.492379 11.3686 -0.0 0.0 -0.0 9.66044 -3.8466 -18.7448 -19.4899 31.2405 -50.743 1.47144 36.0864 -0.47935 -56.5767 4.86035 -4.98191 -5.40288 -17.8483 26.5718 0.0 0.0 0.0 -3.33062 0.0208056 1.8012 -3.33242 0.13536 1.79623 25.9886 -29.3368 -11.7015 -6.24364 0.206255 0.935544 15.1095 25.854 -2.21931 -20.5428 0.0 0.0 -0.0 0.0 -0.0 1.78057 22.864 -4.83117 -25.3609 -0.193622 -3.85538 31.3528 -8.46398 4.03469 18.0203 -0.0 -0.0 0.0 0.0 0.0 
2393.91 949.669 -1214.96 -3.66222 52.5046 5.57257 3.22081 0.076449 -1.82234 3.21623 -0.212266 -1.81155 -10.6821 21.0845 11.2372 -10.7757 32.5303 16.4033 -0.0 0.0 -0.0 0.407922 14.5491 2.37085 -23.9027 -36.2424 70.8136 0.700066 -19.1262 0.117945 6.45267 0.182248 -0.803662 1.715 -0.49103 11.3376 -0.0 0.0 -0.0 9.86751 -5.2774 -19.0503 -19.9088 29.2541 -50.7474 1.42412 35.1997 -0.451774 -56.4855 4.84919 -4.97839 -5.37181 -17.7506 26.43 0.0 0.0 0.0 -3.21983 0.104731 1.82093 -3.22165 0.22037 1.81058 25.3436 -28.9492 -11.7384 -8.215 0.250057 1.23488 15.6268 24.7678 -2.2771 -20.0727 0.0 0.0 -0.0 0.0 -0.0 3.38375 23.3436 -5.46576 -25.2987 -0.195243 -3.84597 31.7609 -7.6319 4.07513 18.3737 -0.0 -0.0 0.0 0.0 0.0 
2371.08 956.119 -1226.19 -1.64071 52.6698 3.3982 2.99707 0.230541 -1.73677 2.99287 -0.0465985 -1.75138 -12.5249 20.176 12.2535 -12.6789 30.7199 17.6038 -0.0 0.0 -0.0 0.589197 14.2089 2.62902 -21.4863 -36.7328 68.917 0.683643 -18.7091 0.11262 6.2319 0.177515 -0.775858 1.69412 -0.2097 11.3083 -0.0 0.0 -0.0 10.1985 -4.90128 -19.7347 -21.3104 29.8474 -51.3437 1.08345 28.222 -0.272372 -55.9893 4.7886 -4.95892 -5.26816 -16.9823 26.2795 0.0 0.0 0.0 -2.9962 -0.043418 1.75146 -2.99791 0.0681024 1.75067 24.1737 -28.7703 -9.71547 -14.4823 0.320549 2.19347 19.9341 24.6418 -2.85439 -17.7512 0.0 0.0 -0.0 0.0 -0.0 7.13552 26.7127 -8.47684 -33.932 0.126512 -5.13058 35.1975 -10.829 4.43625 19.0875 -0.0 -0.0 0.0 0.0 0.0 
2347.18 964.705 -1228.92 -0.777562 51.8692 2.48068 2.91093 0.217742 -1.79558 2.90644 -0.0685208 -1.80743 -13.4269 19.684 12.2697 -13.6414 30.0458 17.7224 -0.0 0.0 -0.0 0.79222 13.6938 2.90895 -20.0129 -37.2122 68.272 0.686543 -18.7829 0.113552 6.12825 0.175256 -0.76281 1.69127 -0.244382 11.2749 -0.0 0.0 -0.0 9.93082 -4.94772 -19.2009 -21.7353 28.051 -52.229 0.925169 24.6217 -0.201907 -55.7374 4.75791 -4.94883 -5.20997 -16.4229 26.2821 0.0 0.0 0.0 -2.91 -0.0189545 1.80863 -2.91181 0.0961528 1.80617 23.7661 -28.3947 -8.26649 -18.148 0.313083 2.75574 20.6099 24.5346 -2.94114 -16.8575 0.0 0.0 -0.0 0.0 -0.0 9.68469 28.9416 -9.51963 -38.0316 0.346309 -5.72073 37.5063 -12.151 4.66864 19.6138 -0.0 -0.0 0.0 0.0 0.0 
2324.29 967.266 -1234.79 -0.105036 52.9003 2.13776 2.79414 0.292977 -1.84136 2.78941 -0.001456 -1.86452 -14.1255 19.2409 12.3664 -14.3665 29.3453 17.8608 -0.0 0.0 -0.0 1.12467 13.336 3.42096 -18.0983 -37.4437 67.565 0.65875 -18.0729 0.104766 6.03911 0.173294 -0.751591 1.64417 -0.302209 10.9306 -0.0 0.0 -0.0 9.99177 -4.89965 -19.3252 -22.9827 27.2068 -52.4828 0.800561 21.6319 -0.152949 -55.4377 4.72144 -4.93665 -5.20332 -16.0556 26.501 0.0 0.0 0.0 -2.79318 -0.0810984 1.86275 -2.79511 0.0375768 1.86414 23.0408 -28.2628 -7.712 -21.1602 0.280045 3.2167 22.2763 24.1571 -3.14983 -15.491 0.0 0.0 -0.0 0.0 -0.0 12.31 30.14 -11.5005 -42.1787 0.611159 -6.30055 37.922 -13.7035 4.72459 19.8988 -0.0 -0.0 0.0 0.0 0.0 
2306.75 968.367 -1236.29 -0.071034 52.9513 2.39516 2.65085 0.262772 -1.77124 2.64648 -0.0202135 -1.79051 -13.8903 19.5369 11.8497 -14.1905 30.16 17.4346 -0.0 0.0 -0.0 1.26931 13.2606 3.65236 -17.2893 -37.7393 66.5023 0.666437 -18.2699 0.107164 6.2414 0.177721 -0.777053 1.6064 0.690218 11.0712 -0.0 0.0 -0.0 9.51694 -4.63058 -18.4083 -23.6207 26.6851 -53.3665 0.772905 20.9505 -0.142906 -55.3153 4.70656 -4.93162 -5.36722 -16.687 27.1877 0.0 0.0 0.0 -2.64996 -0.0501385 1.78992 -2.65174 0.0638416 1.78948 21.8282 -28.0552 -7.40344 -21.4641 0.275367 3.26309 25.5148 25.0308 -3.57242 -14.5818 0.0 0.0 -0.0 0.0 -0.0 15.117 30.7143 -12.7594 -44.4796 0.776071 -6.61369 39.4541 -15.5991 4.89253 19.7394 -0.0 -0.0 0.0 0.0 0.0 
